<?xml version="1.0" encoding="UTF-8" standalone="no"?>
<svg
   enable-background="new 0 0 32 32"
   height="32px"
   version="1.1"
   viewBox="0 0 32 32"
   width="32px"
   xml:space="preserve"
   id="svg8"
   sodipodi:docname="github.svg"
   inkscape:version="1.3.1 (9b9bdc1480, 2023-11-25, custom)"
   xmlns:inkscape="http://www.inkscape.org/namespaces/inkscape"
   xmlns:sodipodi="http://sodipodi.sourceforge.net/DTD/sodipodi-0.dtd"
   xmlns="http://www.w3.org/2000/svg"
   xmlns:svg="http://www.w3.org/2000/svg"><defs
     id="defs8" /><sodipodi:namedview
     id="namedview8"
     pagecolor="#ffffff"
     bordercolor="#000000"
     borderopacity="0.25"
     inkscape:showpageshadow="2"
     inkscape:pageopacity="0.0"
     inkscape:pagecheckerboard="0"
     inkscape:deskcolor="#d1d1d1"
     showgrid="false"
     inkscape:zoom="16"
     inkscape:cx="19.59375"
     inkscape:cy="24.75"
     inkscape:window-width="1874"
     inkscape:window-height="1016"
     inkscape:window-x="0"
     inkscape:window-y="0"
     inkscape:window-maximized="1"
     inkscape:current-layer="svg8" /><path
     d="m 10.664093,31.999999 c -0.234159,0 -0.468318,-0.03971 -0.6928922,-0.121872 -0.718535,-0.129623 -0.895006,-1.640046 0.4669492,-1.289929 0.206772,0.07668 0.435454,0.04519 0.620316,-0.08627 0.19034,-0.134196 0.298519,-0.342338 0.297149,-0.571019 L 11.344665,27.77692 C 5.9672186,28.545126 4.6937221,24.524712 4.6800286,24.482262 3.9241468,22.558323 2.8423594,21.990043 2.8314046,21.984565 2.3630865,21.670984 1.4675309,21.058884 1.7222302,20.256444 1.9509118,19.533427 2.8889173,19.4855 3.277813,19.473175 c 2.3771936,0.167061 3.5822228,2.318312 3.6315188,2.410058 1.3091,2.249844 3.3056142,1.980082 4.5667862,1.49807 0.123242,-0.618946 0.327275,-1.18175 0.601145,-1.66513 -3.9327762,-0.665505 -8.4571122,-2.70173 -8.4571122,-10.36325 0,-2.0964757 0.6559192,-3.9437307 1.949956,-5.4993137 C 5.2852818,4.9306673 4.9292505,2.96154 5.9042285,0.47890642 c 0.075314,-0.1917091 0.2327897,-0.3382297 0.4286069,-0.4012198 0.1971865,-0.0643595 2.0170544,-0.5395244 5.7923556,1.95269468 1.532304,-0.3984812 3.161831,-0.6052532 4.846133,-0.6134693 1.68978,0.00822 3.317938,0.2149881 4.851611,0.6134693 3.773932,-2.49221908 5.586953,-2.01705418 5.786878,-1.95269468 0.195817,0.06299 0.351923,0.2095107 0.427238,0.3998505 0.979086,2.48263358 0.624424,4.45176018 0.338229,5.37744218 1.292668,1.551474 1.947218,3.398729 1.947218,5.4993137 0,7.661519 -4.529814,9.692267 -8.469437,10.350925 0.48475,0.853105 0.751774,1.952694 0.751774,3.176894 0,1.387153 -0.0068,3.375451 -0.01369,5.055645 0,0.227312 0.10544,0.431345 0.293041,0.564172 0.187602,0.131458 0.419022,0.162953 0.63401,0.08627 l 0.468318,1.285821 c -0.634009,0.228682 -1.339225,0.135566 -1.889704,-0.25333 -0.54911,-0.387526 -0.876385,-1.018797 -0.873646,-1.68841 0.0068,-1.678824 0.01369,-3.664383 0.01369,-5.050167 0,-1.997883 -0.776422,-2.885223 -1.110544,-3.172786 -0.205402,-0.178016 -0.287563,-0.461472 -0.206772,-0.720279 0.08079,-0.260177 0.308104,-0.447778 0.577866,-0.477903 4.181999,-0.46558 8.457113,-1.918461 8.457113,-9.155482 0,-1.8897047 -0.627163,-3.5356647 -1.862318,-4.8872137 -0.178015,-0.195817 -0.228681,-0.475165 -0.128719,-0.720279 0.19034,-0.465579 0.71754,-2.104692 -0.05751,-4.3791846 -0.579236,0.016432 -2.058135,0.2588073 -4.573633,1.9718656 -0.167061,0.113656 -0.375202,0.149259 -0.56965,0.09312 -1.484377,-0.4135442 -3.139922,-0.6367484 -4.79136,-0.6463339 -1.667869,0.00822 -3.279596,0.225943 -4.784512,0.6463339 -0.193079,0.05751 -0.40122,0.02054 -0.569651,-0.09312 C 9.1112518,1.6360091 7.6323528,1.3867872 7.0353158,1.3717244 c -0.770945,2.2744919 -0.2423755,3.9094969 -0.05341,4.3764459 0.09859,0.245114 0.0493,0.524462 -0.128719,0.71891 -1.2378934,1.357026 -1.8650562,3.001617 -1.8650562,4.8885827 0,7.232913 4.2655282,8.69538 8.4379414,9.170544 0.268393,0.03013 0.494336,0.216358 0.575128,0.475165 0.08079,0.257438 0.0014,0.540894 -0.201295,0.71891 -0.306734,0.269762 -0.850367,0.920204 -1.035229,2.245735 -0.03149,0.23279 -0.182124,0.432715 -0.397112,0.52857 -1.027013,0.462841 -4.5407682,1.693887 -6.652308,-1.934893 -0.015063,-0.02602 -0.7189093,-1.261173 -1.977343,-1.624051 0.4464085,0.298519 1.4747912,1.166688 2.2334117,3.101581 0.058882,0.182123 1.1064361,3.298766 5.9060113,2.253952 0.202664,-0.04245 0.412175,0.0041 0.573758,0.134196 0.161584,0.128719 0.256069,0.324536 0.257438,0.529939 l 0.01506,2.971492 c 0.0027,0.672351 -0.324536,1.30773 -0.877754,1.696626 C 11.495284,31.871281 11.08174,32 10.664088,32 Z"
     fill="#263238"
     id="path1"
     sodipodi:nodetypes="sccccccccccccscccccccccscsccccccscccscccccccccccscccccccccccccs"
     style="stroke-width:1.36935" /></svg>
