<?xml version="1.0" encoding="UTF-8" standalone="no"?>
<svg
   enable-background="new 0 0 100 100"
   height="32"
   id="Layer_1"
   version="1.1"
   viewBox="0 0 32 32"
   width="32"
   xml:space="preserve"
   sodipodi:docname="linkedin.svg"
   inkscape:version="1.3.1 (9b9bdc1480, 2023-11-25, custom)"
   xmlns:inkscape="http://www.inkscape.org/namespaces/inkscape"
   xmlns:sodipodi="http://sodipodi.sourceforge.net/DTD/sodipodi-0.dtd"
   xmlns="http://www.w3.org/2000/svg"
   xmlns:svg="http://www.w3.org/2000/svg"><defs
     id="defs4" /><sodipodi:namedview
     id="namedview4"
     pagecolor="#ffffff"
     bordercolor="#000000"
     borderopacity="0.25"
     inkscape:showpageshadow="2"
     inkscape:pageopacity="0.0"
     inkscape:pagecheckerboard="0"
     inkscape:deskcolor="#d1d1d1"
     inkscape:zoom="16.32"
     inkscape:cx="10.386029"
     inkscape:cy="17.52451"
     inkscape:window-width="1874"
     inkscape:window-height="1016"
     inkscape:window-x="0"
     inkscape:window-y="0"
     inkscape:window-maximized="1"
     inkscape:current-layer="Layer_1" /><g
     id="g4"
     style="fill:#263238;fill-opacity:1"
     transform="matrix(0.69310576,0,0,0.69310576,-18.419979,-17.362299)"><path
       d="m 37.578,39.772 h -9.115 c -0.552,0 -1,0.448 -1,1 v 29.446 c 0,0.552 0.448,1 1,1 h 9.115 c 0.552,0 1,-0.448 1,-1 V 40.772 c 0,-0.552 -0.448,-1 -1,-1 z m -1,29.446 H 29.463 V 41.772 h 7.115 z"
       fill="#0087AF"
       id="path2"
       style="fill:#263238;fill-opacity:1" /><path
       d="m 43.406,71.218 h 8.742 c 0.552,0 1,-0.448 1,-1 V 54.761 c 0,-2.557 0.79,-5.605 4.553,-5.605 0.98,0 3.963,0 3.963,5.605 v 15.458 c 0,0.552 0.448,1 1,1 h 9.07 c 0.552,0 1,-0.448 1,-1 V 51.574 c 0,-7.953 -4.379,-12.701 -11.713,-12.701 -3.765,0 -6.324,1.602 -7.873,3.061 v -1.161 c 0,-0.552 -0.448,-1 -1,-1 h -8.742 c -0.552,0 -1,0.448 -1,1 v 29.446 c 0,0.552 0.448,0.999 1,0.999 z m 1,-29.446 h 6.742 v 2.965 c 0,0.458 0.311,0.857 0.755,0.969 0.446,0.115 0.908,-0.091 1.125,-0.494 0.023,-0.043 2.41,-4.34 7.993,-4.34 6.173,0 9.713,3.9 9.713,10.701 v 17.644 h -7.07 V 54.761 c 0,-6.617 -3.736,-7.605 -5.963,-7.605 -4.104,0 -6.553,2.843 -6.553,7.605 v 14.458 h -6.742 z"
       fill="#0087AF"
       id="path3"
       style="fill:#263238;fill-opacity:1" /><path
       d="m 32.977,37.916 c 3.523,0 6.39,-2.886 6.39,-6.433 0,-3.547 -2.866,-6.433 -6.39,-6.433 -3.524,0 -6.39,2.886 -6.39,6.433 0,3.547 2.866,6.433 6.39,6.433 z m 0,-10.866 c 2.42,0 4.39,1.988 4.39,4.433 0,2.445 -1.969,4.433 -4.39,4.433 -2.421,0 -4.39,-1.989 -4.39,-4.433 0,-2.444 1.969,-4.433 4.39,-4.433 z"
       fill="#0087AF"
       id="path4"
       style="fill:#263238;fill-opacity:1" /></g></svg>
